#!OML:ASF E:/inclinewalkrobotboard/Project1/Captureday1/Session1/subject1.ASF
:FULLY-SPECIFIED
:DEGREES
113
root 0 0 0 2.011438882128947 -9.357448291427835 1.5552492264264786
lowerback 0.9831101125611634 -1.7085252891192177 -3.242341028590971
upperback -0.5308727021061219 -2.211727475119131 2.4458586926241384
thorax -0.8448026191320718 -1.0826383469777445 4.2997817889999075
lowerneck -32.079491093807235 -2.3825516084939347 -7.3370794426100865
upperneck 4.9021830535373265 -1.0954733160498478 5.456400346621875
head 6.275097307901886 -0.018967218655880053 2.7822892057308013
rclavicle -3.658138950159654E-15 -3.9161732649119214E-15
rhumerus -32.918711723150885 -5.682623078109758 -79.95730411502029
rradius 29.78340988940206
rwrist 19.107092429446457
rhand -17.394290664638312 9.56546492702333
rfingers 7.125019999999953
rthumb 8.847071345786363 -20.31569215194202
lclavicle -4.0138621189480385E-16 -2.0832889212179162E-15
lhumerus -9.911736054669399 8.492916807065491 88.8669532716988
lradius 60.77995414360775
lwrist -5.033119155257774
lhand -33.57457312746 17.509446453207875
lfingers 7.125020000000008
lthumb -6.75751220070773 47.1534826142524
rfemur -15.6043991639027 7.383570709510837 32.61947766958249
rtibia 23.196861660860105
rfoot -5.190624706743215 -7.6681166834011165
rtoes 12.320375313977157
lfemur -2.619185463715534 -0.18709229405279348 -17.53661937485306
ltibia 52.60777584060021
lfoot 8.8322958306171 -14.725030968646164
ltoes -9.894687742433293
114
root 0 0 0 1.8541538667332174 -9.237844275112165 1.4190289589540224
lowerback 1.1301399410904294 -1.6292973077030228 -3.140808051525855
upperback -0.6163496946451764 -2.092637737598449 2.3997075756403707
thorax -1.0224151108430415 -1.023220302851429 4.198947579062969
lowerneck -31.091107667380577 -2.2971757988076806 -7.239404344718768
upperneck 6.266237503595569 -1.016183794464793 5.185145233107352
head 6.623057364560962 -0.05668868313680954 2.7034355465235613
rclavicle -4.168066989960495E-15 -3.065579566030095E-15
rhumerus -32.91587348699962 -5.782070117855028 -80.10455943978107
rradius 29.882252372251358
rwrist 19.230191425748764
rhand -17.359988401315203 9.438227773890318
rfingers 7.125019999999956
rthumb 8.882636765198853 -20.410376710954825
lclavicle -9.06105696329783E-16 -1.7635028057269644E-15
lhumerus -9.763477255795323 9.184627542973132 88.99228715033969
lradius 60.47233716957289
lwrist -5.295520625771639
lhand -33.701395334558086 17.28756726319311
lfingers 7.12502000000001
lthumb -6.88137253824613 46.920188160094945
rfemur -9.031773881116065 7.6513969058868545 35.09907988744079
rtibia 26.36971518307009
rfoot -9.029694478842085 -6.36172937117858
rtoes 14.358500332645583
lfemur -12.593732337771128 1.1816126257749069 -15.041418200736691
ltibia 56.98537883647362
lfoot 5.540833867429285 -11.094579581346752
ltoes -7.776009333562852
115
root 0 0 0 1.7012191495793565 -9.08319133751813 1.2714953489467957
lowerback 1.2495741429718155 -1.52304145209966 -3.0654311321001844
upperback -0.7463504964330528 -1.936205972661172 2.3497357581049605
thorax -1.2272717056922122 -0.9448787880331748 4.1123208848651105
lowerneck -29.756932648487023 -2.176111477106748 -7.196995122244763
upperneck 7.924241040659499 -0.9233404315427113 4.971207389530538
head 7.0273882899729845 -0.09503417498828402 2.6625468291710273
rclavicle -4.584284927287683E-15 -1.6563122743101777E-15
rhumerus -32.84487724957841 -5.61510472169604 -80.28587863223197
rradius 30.02870133675657
rwrist 19.310267376862175
rhand -17.381506225567414 9.312837257720572
rfingers 7.12501999999996
rthumb 8.864638149717534 -20.49779217299234
lclavicle -1.5684660200027915E-15 -1.2768417524994783E-15
lhumerus -9.380010984878242 9.488588665178487 88.85843520394894
lradius 60.52460890494855
lwrist -5.496977825120338
lhand -33.84426181665116 17.188419611236668
lfingers 7.125020000000011
lthumb -7.020332133710235 46.81237834638557
rfemur -2.363754002504904 8.220597168114937 36.81545742226908
rtibia 25.932978542881123
rfoot -15.028625156401256 -6.2857131208630195
rtoes 12.698569964366632
lfemur -18.88985239901031 2.6772696350658536 -13.525168973471036
ltibia 59.35216437712803
lfoot 0.7369934828780931 -7.780877940162162
ltoes -8.188170326969052
116
root 0 0 0 1.5078589395185231 -8.856670994693445 1.069720895332675
lowerback 1.3746649983512902 -1.3652121302249784 -2.995772325923745
upperback -0.9480050474806028 -1.706292234358511 2.2817066099560637
thorax -1.5119307365894474 -0.8296997046354105 4.011941063113534
lowerneck -27.772656138003068 -1.9969998165224567 -7.193440147656453
upperneck 10.266370416711293 -0.8002201306722069 4.750009022362308
head 7.583552105265651 -0.14540938635702008 2.642402442994392
rclavicle -4.195383978977471E-15 2.430093983434424E-16
rhumerus -32.444591533587655 -4.633993350365882 -80.58073611269157
rradius 30.323933090443806
rwrist 18.96228932614136
rhand -17.631145939339206 9.409098189031399
rfingers 7.125019999999959
rthumb 8.62692467874549 -20.38026263845716
lclavicle -1.980683807326566E-15 -4.878763311753915E-16
lhumerus -9.305772598144637 9.2607082324499 88.83041237481525
lradius 60.72562667441638
lwrist -5.507920217582782
lhand -33.894578191681035 17.230856568020336
lfingers 7.125020000000011
lthumb -7.073369098215561 46.85388605044125
rfemur 4.342831792927335 9.070035754992732 38.34813478260149
rtibia 20.93400574181471
rfoot -20.593214912383917 -7.038433815659678
rtoes 7.558020218954849
lfemur -22.166948845774524 2.8622108531995383 -12.862888939484831
ltibia 57.68858667522783
lfoot -1.9513124614837967 -5.583164923463418
ltoes -7.7139279275809916
117
root 0 0 0 1.4389633909421515 -8.776672918136413 0.9949137015765864
lowerback 1.415145349558637 -1.3078558941316019 -2.975042946750577
upperback -1.020637418413838 -1.622916790169701 2.25721507598951
thorax -1.6145485393377386 -0.7882303560050349 3.976932966572334
lowerneck -27.047643525380014 -1.9312273357336942 -7.198126865210931
upperneck 11.105794338649764 -0.7535085919171874 4.672389487131003
head 7.781060653756509 -0.16219003358299022 2.6367708114377493
rclavicle -3.878514411010747E-15 1.5705683565033556E-16
rhumerus -32.03856562170016 -3.6218430224887217 -80.74065732415406
rradius 30.52305412178499
rwrist 18.46343795850416
rhand -17.908971312255055 9.648391095722921
rfingers 7.125019999999956
rthumb 8.359887898208274 -20.150060380214633
lclavicle -1.6670020077586307E-15 -4.27530585824726E-16
lhumerus -9.727757022132765 8.946411496366942 89.05101882739837
lradius 60.651285826509394
lwrist -5.353626024137199
lhand -33.79770055262742 17.304237942796753
lfingers 7.12502000000001
lthumb -6.981871618585893 46.932899602655496
rfemur 5.810593526740281 9.07237883904207 38.45549209805278
rtibia 20.055406456966278
rfoot -21.562772994837736 -7.2728806159176935
rtoes 5.149863503246166
lfemur -24.34468072283516 2.227364708344646 -12.402906469585044
ltibia 53.4904889186175
lfoot -2.7813549988403317 -3.8968357102684634
ltoes -6.505889686725508
118
root 0 0 0 1.4059948949617818 -8.741514532887127 0.9580935171057191
lowerback 1.4397298945593588 -1.2826548820107446 -2.960814637233141
upperback -1.0482410586214999 -1.5860267131462007 2.2449582972243416
thorax -1.6597754801797424 -0.7704365503718791 3.956691249201286
lowerneck -26.721330419052013 -1.9021062369755142 -7.195169793808892
upperneck 11.50586790590776 -0.7315839867785544 4.625269024222789
head 7.878080025835125 -0.1708681675010671 2.6294027774200397
rclavicle -4.5774116017246165E-15 -6.058311848380655E-16
rhumerus -31.683990596043436 -2.556099204903064 -80.85737870176088
rradius 30.699907209675096
rwrist 18.061997676255498
rhand -18.17517775758871 9.816799146404733
rfingers 7.125019999999953
rthumb 8.103507940511475 -19.994864059602342
lclavicle -1.5467328368005138E-15 -5.092613271841727E-16
lhumerus -10.267823745174331 8.70997296268757 89.33501273401141
lradius 60.42295158769431
lwrist -5.165544372946891
lhand -33.658758297811566 17.365465971427856
lfingers 7.125020000000009
lthumb -6.8485772143878965 47.00084715575105
rfemur 6.976940915978334 8.732032469970976 38.38988052494602
rtibia 21.293489965314578
rfoot -22.13137573764631 -7.1367720360745395
rtoes 3.025207734091219
lfemur -27.33020980321068 0.9597946583596522 -11.781498349286219
ltibia 46.48196560450806
lfoot -3.4855540059166383 -1.6320871040696825
ltoes -4.251750588309327
119
root 0 0 0 1.3910959415663315 -8.726136402559536 0.9392157436111773
lowerback 1.4541782987584677 -1.271498529626545 -2.950536262731709
upperback -1.0562643886422298 -1.5694479287004066 2.2375325954188443
thorax -1.6773203416141609 -0.7630465884364861 3.943532867581415
lowerneck -26.570713512555255 -1.8920695306479036 -7.193063175529646
upperneck 11.71241323103241 -0.7262872614338017 4.59896457594578
head 7.931300216665927 -0.177746272450224 2.6238403496285665
rclavicle -5.360896522803687E-15 -1.3000923586043756E-15
rhumerus -31.472666778992036 -1.8185848388696977 -80.9213617249759
rradius 30.81354835192672
rwrist 17.857445348575375
rhand -18.345745271480595 9.888955505531829
rfingers 7.125019999999954
rthumb 7.93928851827132 -19.93521538148896
lclavicle -1.6006179217879625E-15 -6.135065840609661E-16
lhumerus -10.682560504835989 8.652270928019291 89.56193269001751
lradius 60.14833653547865
lwrist -5.039472476856852
lhand -33.54959400465291 17.38070926613982
lfingers 7.125020000000008
lthumb -6.743018636537868 47.020435174227195
rfemur 8.523998437726474 8.279288592614437 38.05060613192263
rtibia 23.503211821891455
rfoot -22.125463552652928 -6.624267626179941
rtoes 0.5267886930139918
lfemur -30.525809588774628 -1.186674588948829 -10.748441212748997
ltibia 36.44576458783756
lfoot -3.985995393539258 1.1033427730420908
ltoes -1.85019570427594
120
root 0 0 0 1.384713362088985 -8.721627942095061 0.9280280599224887
lowerback 1.4563716355888503 -1.2653982465093176 -2.945063670895575
upperback -1.0606025478145105 -1.560444355383646 2.231543673475212
thorax -1.6832908402044928 -0.7593279398837544 3.9348270338964664
lowerneck -26.476067604010936 -1.8878298631217916 -7.197280001266588
upperneck 11.866064947986626 -0.7247419146562724 4.583381368235202
head 7.974410359767034 -0.18386458661885582 2.6216109664792455
rclavicle -5.897063699232747E-15 -1.6449556120935554E-15
rhumerus -31.379145038279333 -1.4725676871378752 -80.94630861483901
rradius 30.864764831061734
rwrist 17.77662414915476
rhand -18.423626857725736 9.917601589811236
rfingers 7.125019999999954
rthumb 7.864322392221492 -19.913711454473244
lclavicle -1.8204164893916513E-15 -7.240793361378608E-16
lhumerus -10.846173058931408 8.775564768030954 89.66413234362027
lradius 59.93190276325955
lwrist -5.018622574481998
lhand -33.509170735435845 17.34438154521
lfingers 7.125020000000008
lthumb -6.702509294071779 46.98489537263215
rfemur 10.93033752838742 7.9124376538291665 36.77937420139788
rtibia 26.415952218708497
rfoot -20.041123368977583 -5.393690244578757
rtoes -2.623183483068021
lfemur -31.759794567130026 -3.377036811882639 -9.587382475049596
ltibia 27.666657086632483
lfoot -4.434986743584708 3.0733081318065927
ltoes -1.647716123126699
